<mxfile host="app.diagrams.net" modified="2022-04-20T09:48:52.314Z" agent="5.0 (X11; Linux x86_64) AppleWebKit/537.36 (KHTML, like Gecko) Chrome/100.0.4896.127 Safari/537.36" etag="RjTtXqU-yjqWusYFB_Bz" version="17.4.0" type="github">
  <diagram id="xnCiRkDLJKlhPCxs6KvB" name="6.1">
    <mxGraphModel dx="1019" dy="476" grid="1" gridSize="10" guides="1" tooltips="1" connect="1" arrows="1" fold="1" page="1" pageScale="1" pageWidth="827" pageHeight="1169" math="0" shadow="0">
      <root>
        <mxCell id="0" />
        <mxCell id="1" parent="0" />
      </root>
    </mxGraphModel>
  </diagram>
</mxfile>
